<?xml version="1.0" encoding="UTF-8"?>
<svg width="100px" height="85px" viewBox="0 0 100 85" version="1.1" xmlns="http://www.w3.org/2000/svg" xmlns:xlink="http://www.w3.org/1999/xlink">
    <title>C</title>
    <g id="Set-Symbols" stroke="none" stroke-width="1" fill="none" fill-rule="evenodd">
        <g id="GFL" transform="translate(0.000000, -9.000000)">
            <g id="C" transform="translate(0.000000, 9.000000)">
                <rect id="Placeholder-for-size" x="0" y="0" width="100" height="85"></rect>
                <path d="M50,3.37759959 L96.8938579,80.7896825 L3.10614206,80.7896825 L50,3.37759959 Z" id="Triangle" stroke="#FFFFFF" stroke-width="3.5" fill="#000000"></path>
                <g id="Eye" transform="translate(32.000000, 18.000000)">
                    <path d="M17.9057223,8.67700818 C21.547334,8.67700818 24.9477386,9.88555611 27.8337824,11.9758744 C30.7864797,14.1144689 33.2010523,17.1744915 34.7916653,20.8120632 C33.3051935,24.7692272 30.8705066,28.1265924 27.8215955,30.4822973 C24.8378891,32.7876226 21.2655314,34.1320346 17.4247218,34.1320346 C13.78311,34.1320346 10.3827054,32.9234867 7.49666161,30.8331684 C4.54396431,28.6945739 2.12939172,25.6345513 0.538778749,21.9969796 C2.0252506,18.0398156 4.45993744,14.6824504 7.50884859,12.3267455 C10.4925549,10.0214202 14.0649127,8.67700818 17.9057223,8.67700818 Z" id="Eye-Outline" stroke="#000000" fill="#FFFFFF"></path>
                    <ellipse id="Pupil" fill="#000000" cx="17.5565176" cy="21.4045214" rx="2.16450216" ry="10.3415103"></ellipse>
                </g>
                <g id="Bowtie" transform="translate(40.000000, 59.000000)" fill="#FFFFFF">
                    <polygon id="Triangle" transform="translate(5.050505, 5.291005) rotate(90.000000) translate(-5.050505, -5.291005) " points="5.05050505 0.481000481 10.1010101 10.1010101 -1.63424829e-13 10.1010101"></polygon>
                    <polygon id="Triangle" transform="translate(14.670515, 5.291005) scale(-1, 1) rotate(90.000000) translate(-14.670515, -5.291005) " points="14.6705147 0.481000481 19.7210197 10.1010101 9.62000962 10.1010101"></polygon>
                </g>
            </g>
        </g>
    </g>
</svg>