<?xml version="1.0" encoding="UTF-8"?>
<svg width="100px" height="95px" viewBox="0 0 100 95" version="1.1" xmlns="http://www.w3.org/2000/svg" xmlns:xlink="http://www.w3.org/1999/xlink">
    <title>C</title>
    <g id="Set-Symbols" stroke="none" stroke-width="1" fill="none" fill-rule="evenodd">
        <g id="NPK" transform="translate(0.000000, -2.000000)" fill-rule="nonzero">
            <g id="C" transform="translate(0.000000, 2.000000)">
                <path d="M99.2267181,1.45510137 C98.8750698,1.10023979 98.2428411,0.676923077 97.2263527,0.676923077 C95.9249769,0.676923077 91.9654717,0.676923077 67.6592782,21.4016376 C57.5371585,30.0318959 46.0302887,40.4920243 36.2862756,49.8734471 C36.2798149,49.8798936 36.2718159,49.8838842 36.2653551,49.8906377 C36.260125,49.8958562 36.2567408,49.9019957 36.2515107,49.9072142 C33.4281712,52.6257732 30.7546591,55.2525471 28.3054267,57.7178527 C13.1377837,59.5557042 11.1703372,69.2477844 9.58499686,77.0553532 C8.22578209,83.7507563 7.25790304,87.2708236 1.69767478,87.7180842 C0.847934812,87.7865394 0.156021275,88.4370166 0.0228071521,89.2768966 C-0.11040697,90.1167766 0.350150862,90.9609543 1.1374371,91.2872673 C1.45124404,91.4180381 8.92846351,94.5230769 17.6738322,94.5230769 C17.6750628,94.5230769 17.6756781,94.5230769 17.6769088,94.5230769 C27.2787858,94.5230769 39.497259,90.7506773 43.4509187,73.0892532 C54.986708,61.4064486 69.692255,45.0966296 81.0474514,31.3847289 C87.2934401,23.8423854 92.093148,17.6237125 95.3139763,12.9015362 C99.9050949,6.16960326 100.928967,3.17415402 99.2267181,1.45510137 Z" id="Path" fill="#FFFFFF"></path>
                <path d="M37.5353503,53.7938081 L47.3731978,63.7287045 C45.4359015,65.7688516 43.5509063,67.724888 41.7486699,69.5624325 L31.760072,59.4746631 C33.5783063,57.6543092 35.5149874,55.7507653 37.5353503,53.7938081 Z" id="Path" fill="#000000"></path>
                <path d="M17.6769088,90.8390857 C17.6762934,90.8390857 17.6747552,90.8390857 17.6741399,90.8390857 C13.9570659,90.8390857 10.439044,90.170497 7.73322826,89.5003735 C11.3604673,86.9006133 12.3240392,82.14467 13.2030063,77.8138852 C14.7465057,70.2119888 16.2054003,63.011 28.4807894,61.4264019 L39.72923,72.8086792 C36.88497,84.7447371 29.4705119,90.8390857 17.6769088,90.8390857 Z" id="Path" fill="#000000"></path>
                <path d="M76.6627685,30.8877385 C68.5530127,40.5911768 58.8053077,51.5584257 49.9051891,61.0451405 L40.1919414,51.2354894 C49.5784607,42.2515974 60.4337196,32.4081792 70.0377502,24.2184282 C86.7079748,10.0037046 93.3572977,5.95625655 95.8619078,4.80970983 C94.7414325,7.32628012 90.755469,14.0256739 76.6627685,30.8877385 Z" id="Path" fill="#000000"></path>
            </g>
        </g>
    </g>
</svg>